<svg version="1.1" id="Capa_1" xmlns="http://www.w3.org/2000/svg" xmlns:xlink="http://www.w3.org/1999/xlink" x="0px" y="0px"
	 viewBox="0 0 30 30" style="enable-background:new 0 0 30 30;" xml:space="preserve">
<g>
	<path d="M0,4l0,16.5c0,1.626,1.374,3,3,3h4v5c0,0.413,0.254,0.784,0.639,0.933C7.379,28.989,7.439,29,7.5,29
		c0.276,0,0.546-0.114,0.74-0.327L12.721,23.5H27c1.626,0,3-1.374,3-3V4c0-1.626-1.374-3-3-3H3C1.374,1,0,2.374,0,4z M20,12
		c0-1.103,0.897-2,2-2s2,0.897,2,2s-0.897,2-2,2S20,13.103,20,12z M13,12c0-1.103,0.897-2,2-2s2,0.897,2,2s-0.897,2-2,2
		S13,13.103,13,12z M6,12c0-1.103,0.897-2,2-2s2,0.897,2,2s-0.897,2-2,2S6,13.103,6,12z"/>
</g>
</svg>
