<svg width="31" height="32" viewBox="0 0 31 32" fill="none" xmlns="http://www.w3.org/2000/svg">
<path d="M11.3513 23.5326C11.2138 23.5326 11.0638 23.4944 10.9388 23.4308C9.97627 22.9344 9.15127 22.1963 8.55127 21.2799C8.05127 20.5163 8.05127 19.5363 8.55127 18.7726C9.15127 17.8563 9.97627 17.1181 10.9388 16.6344C11.4013 16.3926 11.9638 16.5963 12.2013 17.0672C12.4388 17.5381 12.2513 18.1108 11.7763 18.3526C11.1013 18.6963 10.5263 19.2181 10.1138 19.8544C10.0388 19.969 10.0388 20.1217 10.1138 20.249C10.5263 20.8854 11.1013 21.4072 11.7763 21.7508C12.2388 21.9926 12.4263 22.5654 12.2013 23.0363C12.0263 23.3417 11.6888 23.5326 11.3513 23.5326Z" fill="#00DA71"/>
<path d="M19.1117 23.5326C18.7617 23.5326 18.4367 23.3417 18.2742 23.0108C18.0367 22.5399 18.2242 21.9672 18.6992 21.7253C19.3742 21.3817 19.9492 20.8599 20.3617 20.2235C20.4367 20.109 20.4367 19.9563 20.3617 19.829C19.9492 19.1926 19.3742 18.6708 18.6992 18.3272C18.2367 18.0853 18.0492 17.5126 18.2742 17.0417C18.5117 16.5708 19.0742 16.3799 19.5367 16.609C20.4992 17.1053 21.3242 17.8435 21.9242 18.7599C22.4241 19.5235 22.4241 20.5035 21.9242 21.2672C21.3242 22.1835 20.4992 22.9217 19.5367 23.4053C19.3867 23.4944 19.2492 23.5326 19.1117 23.5326Z" fill="#00DA71"/>
<path d="M18.8501 29.8965H11.3501C4.5626 29.8965 1.6626 26.9438 1.6626 20.0328V12.3965C1.6626 5.48556 4.5626 2.53284 11.3501 2.53284H18.8501C25.6376 2.53284 28.5376 5.48556 28.5376 12.3965V20.0328C28.5376 26.9438 25.6376 29.8965 18.8501 29.8965ZM11.3501 4.44193C5.5876 4.44193 3.5376 6.5292 3.5376 12.3965V20.0328C3.5376 25.9001 5.5876 27.9874 11.3501 27.9874H18.8501C24.6126 27.9874 26.6626 25.9001 26.6626 20.0328V12.3965C26.6626 6.5292 24.6126 4.44193 18.8501 4.44193H11.3501Z" fill="#00DA71"/>
<path d="M18.8501 29.8965H11.3501C4.5626 29.8965 1.6626 26.9438 1.6626 20.0328V12.3965C1.6626 5.48556 4.5626 2.53284 11.3501 2.53284H18.8501C25.6376 2.53284 28.5376 5.48556 28.5376 12.3965V20.0328C28.5376 26.9438 25.6376 29.8965 18.8501 29.8965ZM11.3501 4.44193C5.5876 4.44193 3.5376 6.5292 3.5376 12.3965V20.0328C3.5376 25.9001 5.5876 27.9874 11.3501 27.9874H18.8501C24.6126 27.9874 26.6626 25.9001 26.6626 20.0328V12.3965C26.6626 6.5292 24.6126 4.44193 18.8501 4.44193H11.3501Z" fill="#00DA71"/>
<path d="M2.88818 12.091C2.37568 12.091 1.95068 11.6583 1.95068 11.1365C1.95068 10.6146 2.36318 10.1819 2.88818 10.1819L26.9132 10.1692C27.4257 10.1692 27.8507 10.6019 27.8507 11.1237C27.8507 11.6456 27.4382 12.0783 26.9132 12.0783L2.88818 12.091Z" fill="#00DA71"/>
</svg>