<svg width="10" height="11" viewBox="0 0 10 11" fill="none" xmlns="http://www.w3.org/2000/svg">
<path d="M4.02535 0.878906C1.80714 0.878906 0 2.68605 0 4.90426C0 7.12246 1.80714 8.92961 4.02535 8.92961C4.98487 8.92961 5.86694 8.59066 6.55963 8.02737L9.28314 10.7509C9.32151 10.7908 9.36747 10.8228 9.41832 10.8447C9.46918 10.8667 9.52391 10.8783 9.57931 10.8789C9.63471 10.8794 9.68966 10.869 9.74096 10.848C9.79225 10.8271 9.83885 10.7961 9.87802 10.7569C9.9172 10.7178 9.94816 10.6712 9.9691 10.6199C9.99005 10.5686 10.0005 10.5136 9.99998 10.4582C9.99942 10.4028 9.9878 10.3481 9.96583 10.2972C9.94384 10.2464 9.91194 10.2004 9.87197 10.162L7.14847 7.43853C7.71175 6.74584 8.0507 5.86378 8.0507 4.90426C8.0507 2.68605 6.24356 0.878906 4.02535 0.878906ZM4.02535 1.71174C5.79346 1.71174 7.21787 3.13614 7.21787 4.90426C7.21787 5.76557 6.87813 6.54374 6.32702 7.11701C6.29305 7.14197 6.26307 7.17196 6.2381 7.20593C5.66484 7.75703 4.88667 8.09678 4.02535 8.09678C2.25724 8.09678 0.832831 6.67237 0.832831 4.90426C0.832831 3.13614 2.25724 1.71174 4.02535 1.71174Z" fill="black"/>
</svg>
